<svg xmlns="http://www.w3.org/2000/svg"  viewBox="0 0 100 100" width="100px" height="100px"><path d="M 70.5 11 C 65.112572 11 60.274764 13.320446 56.892578 17 L 22.332031 17 C 18.840031 17 16 19.840031 16 23.332031 L 16 76.667969 C 16 80.159969 18.840031 83 22.332031 83 L 75.666016 83 C 79.159016 83 82 80.159969 82 76.667969 L 82 45.025391 C 85.421205 40.572819 89 35.55252 89 29.5 C 89 19.288772 80.711228 11 70.5 11 z M 70.5 12 C 80.170772 12 88 19.829228 88 29.5 C 88 37.709412 80.73697 44.177098 76.951172 50.234375 C 72.529666 57.308785 71 63.8 71 66.5 C 71 66.781469 70.781469 67 70.5 67 C 70.218531 67 70 66.781469 70 66.5 C 70 63.8 68.470334 57.308785 64.048828 50.234375 C 60.26303 44.177098 53 37.709412 53 29.5 C 53 19.829228 60.829228 12 70.5 12 z M 70.5 15 A 0.50005 0.50005 0 1 0 70.5 16 C 71.148695 16 71.789145 16.06237 72.429688 16.154297 A 0.50005 0.50005 0 1 0 72.570312 15.166016 C 71.900856 15.069941 71.213305 15 70.5 15 z M 74.496094 15.587891 A 0.50005 0.50005 0 0 0 74.357422 16.568359 C 75.749295 16.983801 77.047878 17.619628 78.212891 18.433594 A 0.5006595 0.5006595 0 1 0 78.787109 17.613281 C 77.536122 16.739247 76.138705 16.057887 74.642578 15.611328 A 0.50005 0.50005 0 0 0 74.496094 15.587891 z M 22.332031 19 L 55.279297 19 C 53.215526 21.984559 52 25.599738 52 29.5 C 52 32.636672 52.971751 35.495801 54.375 38.146484 L 18 74.523438 L 18 23.332031 C 18 20.942031 19.943031 19 22.332031 19 z M 81.1875 19.994141 A 0.50005 0.50005 0 0 0 80.816406 20.822266 C 82.798295 23.171778 84 26.192221 84 29.5 C 84 34.145301 80.667708 38.542322 77.345703 42.861328 C 75.973713 44.645315 74.66725 46.341994 73.558594 48.115234 C 73.383983 48.39482 73.228033 48.666167 73.070312 48.929688 A 0.5005959 0.5005959 0 1 0 73.929688 49.443359 C 74.093966 49.16888 74.244861 48.902946 74.40625 48.644531 C 75.479593 46.927772 76.766662 45.254716 78.138672 43.470703 C 81.460667 39.151709 85 34.614699 85 29.5 C 85 25.949779 83.708143 22.698222 81.582031 20.177734 A 0.50005 0.50005 0 0 0 81.1875 19.994141 z M 70.5 22 C 66.363784 22 63 25.363787 63 29.5 C 63 33.636213 66.363784 37 70.5 37 C 74.636216 37 78 33.636213 78 29.5 C 78 25.363787 74.636216 22 70.5 22 z M 32 23 C 26.482814 23 22 27.482814 22 33 C 22 38.517186 26.482814 43 32 43 C 36.605875 43 40.482638 39.875967 41.638672 35.630859 C 41.865884 34.795304 42 33.915827 42 33 C 42 32.453495 41.943208 31.927785 41.861328 31.419922 A 0.50005 0.50005 0 0 0 41.367188 31 L 40.255859 31 L 32.5 31 A 0.50005 0.50005 0 0 0 32 31.5 L 32 35.5 A 0.50005 0.50005 0 0 0 32.5 36 L 35.78125 36 C 34.866918 37.148931 33.586678 38 32 38 C 29.232134 38 27 35.767866 27 33 C 27 30.232134 29.232134 28 32 28 C 33.286083 28 34.450731 28.48817 35.337891 29.285156 A 0.50005 0.50005 0 0 0 36.025391 29.265625 L 38.853516 26.439453 A 0.50005 0.50005 0 0 0 38.841797 25.720703 C 37.053859 24.038988 34.648527 23 32 23 z M 70.5 23 C 74.095776 23 77 25.904226 77 29.5 C 77 33.095774 74.095776 36 70.5 36 C 66.904224 36 64 33.095774 64 29.5 C 64 25.904226 66.904224 23 70.5 23 z M 32 24 C 34.197685 24 36.152888 24.855719 37.714844 26.164062 L 35.591797 28.285156 C 34.584474 27.516438 33.365004 27 32 27 C 28.691866 27 26 29.691866 26 33 C 26 36.308134 28.691866 39 32 39 C 34.327298 39 36.346185 37.670022 37.339844 35.728516 A 0.50005 0.50005 0 0 0 36.894531 35 L 33 35 L 33 32 L 40.255859 32 L 40.912109 32 C 40.953221 32.332438 41 32.663722 41 33 C 41 33.818173 40.880616 34.608696 40.673828 35.369141 C 39.633862 39.188033 36.154125 42 32 42 C 27.023186 42 23 37.976814 23 33 C 23 28.023186 27.023186 24 32 24 z M 54.876953 39.058594 C 56.100737 41.184009 57.567712 43.160981 59.015625 45.044922 L 54.767578 49.291016 L 48.292969 55.767578 L 48.291016 55.767578 L 23.060547 81 L 22.332031 81 C 19.943031 81 18 79.057969 18 76.667969 L 18 75.9375 L 54.876953 39.058594 z M 59.628906 45.845703 C 60.953292 47.559276 62.22014 49.195974 63.201172 50.765625 C 67.529666 57.691215 69 64.2 69 66.5 C 69 67.322531 69.677469 68 70.5 68 C 71.322531 68 72 67.322531 72 66.5 C 72 64.2 73.470334 57.691215 77.798828 50.765625 C 78.428803 49.757665 79.195419 48.713863 80 47.650391 L 80 74.525391 L 73.853516 68.376953 A 0.50005 0.50005 0 1 0 73.146484 69.083984 L 80 75.939453 L 80 76.667969 C 80 79.057969 78.056969 81 75.667969 81 L 74.939453 81 L 49.707031 55.767578 L 54.767578 50.707031 L 66.146484 62.083984 A 0.50005 0.50005 0 1 0 66.853516 61.376953 L 55.476562 50 L 59.628906 45.845703 z M 49 56.474609 L 73.525391 81 L 24.474609 81 L 49 56.474609 z"/></svg>