<svg xmlns="http://www.w3.org/2000/svg" xmlns:xlink="http://www.w3.org/1999/xlink" viewBox="0,0,256,256" width="100px" height="100px" fill-rule="nonzero"><g fill="#fcc419" fill-rule="nonzero" stroke="none" stroke-width="1" stroke-linecap="butt" stroke-linejoin="miter" stroke-miterlimit="10" stroke-dasharray="" stroke-dashoffset="0" font-family="none" font-weight="none" font-size="none" text-anchor="none" style="mix-blend-mode: normal"><g transform="scale(2.56,2.56)"><path d="M70.5,11c-5.38743,0 -10.22524,2.32045 -13.60742,6h-34.56055c-3.492,0 -6.33203,2.84003 -6.33203,6.33203v53.33594c0,3.492 2.84003,6.33203 6.33203,6.33203h53.33399c3.493,0 6.33398,-2.84003 6.33398,-6.33203v-31.64258c3.42121,-4.45257 7,-9.47287 7,-15.52539c0,-10.21123 -8.28877,-18.5 -18.5,-18.5zM70.5,12c9.67077,0 17.5,7.82923 17.5,17.5c0,8.20941 -7.26303,14.6771 -11.04883,20.73438c-4.42151,7.07441 -5.95117,13.56562 -5.95117,16.26563c0,0.28147 -0.21853,0.5 -0.5,0.5c-0.28147,0 -0.5,-0.21853 -0.5,-0.5c0,-2.7 -1.52967,-9.19121 -5.95117,-16.26562c-3.7858,-6.05728 -11.04883,-12.52496 -11.04883,-20.73437c0,-9.67077 7.82923,-17.5 17.5,-17.5zM70.5,15c-0.18032,-0.00255 -0.34804,0.09219 -0.43894,0.24794c-0.0909,0.15575 -0.0909,0.34838 0,0.50413c0.0909,0.15575 0.25863,0.25049 0.43894,0.24794c0.6487,0 1.28915,0.06237 1.92969,0.1543c0.18215,0.03738 0.37,-0.02939 0.48768,-0.17336c0.11768,-0.14396 0.14577,-0.34134 0.07291,-0.51241c-0.07286,-0.17108 -0.23462,-0.2876 -0.41997,-0.30251c-0.66946,-0.09608 -1.35701,-0.16602 -2.07031,-0.16602zM74.49609,15.58789c-0.24909,0.00003 -0.46017,0.18339 -0.49506,0.43002c-0.03488,0.24663 0.11707,0.48134 0.35638,0.55045c1.39187,0.41544 2.69046,1.05127 3.85547,1.86523c0.14653,0.1026 0.33667,0.11922 0.49879,0.0436c0.16211,-0.07562 0.27157,-0.23198 0.28713,-0.41018c0.01556,-0.1782 -0.06514,-0.35117 -0.21169,-0.45373c-1.25099,-0.87403 -2.6484,-1.55539 -4.14453,-2.00195c-0.04739,-0.01505 -0.09676,-0.02295 -0.14648,-0.02344zM22.33203,19h32.94727c-2.06377,2.98456 -3.2793,6.59974 -3.2793,10.5c0,3.13667 0.97175,5.9958 2.375,8.64648l-36.375,36.37695v-51.19141c0,-2.39 1.94303,-4.33203 4.33203,-4.33203zM81.1875,19.99414c-0.19478,0.00244 -0.37042,0.11776 -0.45007,0.29552c-0.07966,0.17776 -0.04884,0.3856 0.07898,0.5326c1.98189,2.34951 3.18359,5.36996 3.18359,8.67773c0,4.6453 -3.33229,9.04232 -6.6543,13.36133c-1.37199,1.78399 -2.67845,3.48067 -3.78711,5.25391c-0.17461,0.27959 -0.33056,0.55093 -0.48828,0.81445c-0.09178,0.15351 -0.09469,0.34434 -0.00762,0.50057c0.08707,0.15624 0.25088,0.25415 0.42972,0.25685c0.17884,0.0027 0.34553,-0.09022 0.43728,-0.24376c0.16428,-0.27448 0.31517,-0.54041 0.47656,-0.79883c1.07334,-1.71676 2.36041,-3.38981 3.73242,-5.17383c3.322,-4.31899 6.86133,-8.856 6.86133,-13.9707c0,-3.55022 -1.29186,-6.80178 -3.41797,-9.32227c-0.09659,-0.11821 -0.24189,-0.18583 -0.39453,-0.18359zM70.5,22c-4.13622,0 -7.5,3.36379 -7.5,7.5c0,4.13621 3.36378,7.5 7.5,7.5c4.13622,0 7.5,-3.36379 7.5,-7.5c0,-4.13621 -3.36378,-7.5 -7.5,-7.5zM32,23c-5.51719,0 -10,4.48281 -10,10c0,5.51719 4.48281,10 10,10c4.60587,0 8.48264,-3.12403 9.63867,-7.36914c0.22721,-0.83555 0.36133,-1.71503 0.36133,-2.63086c0,-0.54651 -0.05679,-1.07221 -0.13867,-1.58008c-0.03933,-0.24228 -0.24869,-0.42019 -0.49414,-0.41992h-1.11133h-7.75586c-0.27613,0.00003 -0.49997,0.22387 -0.5,0.5v4c0.00003,0.27613 0.22387,0.49997 0.5,0.5h3.28125c-0.91433,1.14893 -2.19457,2 -3.78125,2c-2.76787,0 -5,-2.23213 -5,-5c0,-2.76787 2.23213,-5 5,-5c1.28608,0 2.45073,0.48817 3.33789,1.28516c0.19797,0.17714 0.4999,0.16857 0.6875,-0.01953l2.82813,-2.82617c0.09585,-0.09579 0.14872,-0.22637 0.14651,-0.36186c-0.00221,-0.13549 -0.05931,-0.26428 -0.15823,-0.35689c-1.78794,-1.68172 -4.19327,-2.7207 -6.8418,-2.7207zM70.5,23c3.59578,0 6.5,2.90423 6.5,6.5c0,3.59577 -2.90422,6.5 -6.5,6.5c-3.59578,0 -6.5,-2.90423 -6.5,-6.5c0,-3.59577 2.90422,-6.5 6.5,-6.5zM32,24c2.19769,0 4.15289,0.85572 5.71484,2.16406l-2.12305,2.12109c-1.00732,-0.76872 -2.22679,-1.28516 -3.5918,-1.28516c-3.30813,0 -6,2.69187 -6,6c0,3.30813 2.69187,6 6,6c2.3273,0 4.34618,-1.32998 5.33984,-3.27148c0.07966,-0.1551 0.07279,-0.34049 -0.01815,-0.48926c-0.09094,-0.14877 -0.2528,-0.23943 -0.42716,-0.23925h-3.89453v-3h7.25586h0.65625c0.04111,0.33244 0.08789,0.66372 0.08789,1c0,0.81817 -0.11938,1.6087 -0.32617,2.36914c-1.03997,3.81889 -4.5197,6.63086 -8.67383,6.63086c-4.97681,0 -9,-4.02319 -9,-9c0,-4.97681 4.02319,-9 9,-9zM54.87695,39.05859c1.22378,2.12542 2.69076,4.10239 4.13867,5.98633l-4.24805,4.24609l-6.47461,6.47656h-0.00195l-25.23047,25.23242h-0.72852c-2.389,0 -4.33203,-1.94203 -4.33203,-4.33203v-0.73047zM59.62891,45.8457c1.32439,1.71357 2.59123,3.35027 3.57227,4.91992c4.32849,6.92559 5.79883,13.43438 5.79883,15.73438c0,0.82253 0.67747,1.5 1.5,1.5c0.82253,0 1.5,-0.67747 1.5,-1.5c0,-2.3 1.47033,-8.80878 5.79883,-15.73437c0.62998,-1.00796 1.39659,-2.05176 2.20117,-3.11523v26.875l-6.14648,-6.14844c-0.12541,-0.13061 -0.31163,-0.18323 -0.48685,-0.13755c-0.17522,0.04568 -0.31205,0.18251 -0.35773,0.35773c-0.04568,0.17522 0.00693,0.36144 0.13755,0.48685l6.85352,6.85547v0.72852c0,2.39 -1.94303,4.33203 -4.33203,4.33203h-0.72852l-25.23242,-25.23242l5.06055,-5.06055l11.37891,11.37695c0.12541,0.13061 0.31163,0.18323 0.48685,0.13755c0.17522,-0.04568 0.31205,-0.18251 0.35773,-0.35773c0.04568,-0.17522 -0.00693,-0.36144 -0.13755,-0.48685l-11.37695,-11.37695zM49,56.47461l24.52539,24.52539h-49.05078z"></path></g></g></svg>